<svg version="1.1"
  xmlns="http://www.w3.org/2000/svg"
  xmlns:xlink="http://www.w3.org/1999/xlink" viewBox="0 0 612 792" xml:space="preserve">
  <path d="M354.91,369.22c-2.48-1.65-9.91-6.33-12.53-8.12c-0.37-0.19-0.81-0.24-1.27-0.17c-0.4-0.05-0.84,0-1.28,0.17
	c-4.33,2.3-22.32,11.91-26.65,14.21c-0.68,0.27-1.08,0.95-1.08,1.62c0,3.52,0.14,14.88,0.14,19.35c0,0.54-0.27,0.95-0.54,1.35
	c-0.41,0.27-0.81,0.54-1.35,0.54h-0.62c-1.1,0-1.46-0.83-1.57-1.49v-12.14c0.01-2.44,0.02-4.56,0.03-6.09c0-0.53,0-1.02,0-1.39
	c0-0.19-0.03-0.36-0.09-0.53c-0.09-0.56-0.42-1.02-0.77-1.37c-2.03-1.22-7.04-4.33-10.01-6.36c-0.54-0.27-0.95-0.95-0.81-1.62
	c0-0.53,0.27-1.2,0.79-1.47c1.95-1.03,4.54-2.49,6.41-3.56c0.63-0.36,1.18-0.68,1.59-0.92c0.14-0.07,0.26-0.15,0.38-0.25
	c0.35-0.3,0.59-0.74,0.59-1.26c0-4.13,0-18.32,0-22.31c0-0.55-0.41-1.24-0.96-1.51c-2.48-1.65-9.78-6.33-12.53-7.99
	c-0.55-0.41-1.38-0.41-1.93,0c-0.41,0.25-0.94,0.58-1.56,0.95c-0.01,0-0.01,0.01-0.02,0.01c-1.85,1.13-4.42,2.69-6.7,4.07
	c-0.09,0.05-0.17,0.1-0.26,0.15c-0.67,0.4-1.31,0.78-1.9,1.13c-0.63,0.37-1.22,0.72-1.69,0.99c-0.69,0.55-1.65,0.41-2.2-0.27
	c-1.65-1.65-4.96-4.96-6.61-6.61c-0.69-0.69-1.51-0.83-2.34-0.28c-2.34,1.38-7.71,4.54-10.6,6.33c-0.41,0.27-0.69,0.69-0.83,1.24
	c0,0.55,0.14,1.24,0.55,1.65c1.93,1.93,4.96,5.23,6.2,6.47c0.41,0.27,0.55,0.83,0.55,1.24c0,7.02,0,62.38,0,69.54
	c0,0.55,0.28,0.96,0.55,1.38c1.51,1.38,5.51,5.51,7.44,7.43c0.28,0.28,0.65,0.45,1.05,0.5c0.4,0.05,0.81-0.02,1.15-0.22
	c2.48-1.51,7.71-4.68,10.6-6.47c0.55-0.27,0.83-0.69,0.96-1.24c0-0.07-0.01-0.13-0.01-0.2c0.17-0.21,0.29-0.46,0.36-0.76
	c0-0.54-0.13-1.08-0.54-1.49c-1.89-2.03-5.01-5.28-6.09-6.5c-0.41-0.27-0.54-0.81-0.54-1.22c0-3.92,0-22.87,0-27.6
	c0-0.73,0.34-1.23,0.8-1.52c0.13-0.06,0.31-0.12,0.54-0.08c0.35,0.05,0.92,0.22,1.8,0.7c2.53,1.32,7.18,3.91,9.94,5.4
	c0.44,0.24,0.84,0.45,1.16,0.62c0.55,0.27,0.96,0.96,0.96,1.51c0,2.43,0,8.39,0,14.4c0,1.91,0,3.59,0,4.78
	c0,0.55,0.28,0.96,0.55,1.38c1.51,1.38,5.51,5.51,7.44,7.43c0.24,0.2,0.51,0.32,0.78,0.4c0.06,0.02,0.12,0.04,0.19,0.06
	c0.04,0.01,0.09,0.03,0.13,0.04v0.02h5.49v0c0.88,0,1.72,0,2.41,0c0.75,0,1.41,0.5,1.67,1.17c0,8.03,0,36.88,0,46.36
	c0,0.17,0.05,0.35,0.12,0.53c0,0.44,0,0.86,0,1.24c0,0.55,0.41,1.24,0.96,1.51c0.55,0.41,1.24,0.41,1.79,0
	c3.31-1.79,8.67-4.68,10.74-5.92c0.69-0.27,0.96-0.96,0.96-1.65c0-5.92,0-33.88,0-41.45c0-0.41,0.14-0.97,0.55-1.24
	c0.27-0.41,0.83-0.55,1.24-0.55c2.89,0,8.4,0,10.74,0c0.69,0,1.24-0.41,1.65-0.96c1.1-2.2,4.13-7.44,5.92-10.74
	c0.27-0.55,0.27-1.24,0-1.79c-0.16-0.32-0.46-0.57-0.78-0.75c-0.29-0.5-0.92-0.87-1.43-0.87c-4.6,0-12.85,0-16.51,0
	c-0.59,0-1.09-0.24-1.43-0.61c-0.06-0.17-0.09-0.34-0.09-0.52c0-5.09,0-19.28,0-23.41c0-0.69,0.41-1.38,1.1-1.65
	c0.27-0.14,0.55-0.28,0.83-0.41c0.44-0.22,0.87-0.26,1.31-0.13c2.22,1.25,7.65,4.16,9.92,5.36c0.54,0.27,0.95,0.95,0.95,1.62
	c0,1.22,0,3.25,0,5.14c0,0.68,0.41,1.22,0.95,1.49c0.07,0.05,0.15,0.08,0.22,0.12c0.13,0.12,0.27,0.23,0.43,0.3
	c0.55,0.41,1.24,0.41,1.79,0c3.31-1.93,8.67-5.1,10.74-6.33c0.55-0.41,0.97-0.96,0.97-1.65c0-1.65,0-5.09,0-6.75
	C355.87,370.18,355.46,369.63,354.91,369.22z M291.79,364.81c0,0.69-0.41,1.38-0.96,1.65c-0.28,0.14-0.59,0.3-0.95,0.47
	c-0.71,0.35-1.55,0.77-2.46,1.23c-0.45,0.23-0.92,0.46-1.4,0.71c-1.77,0.9-3.64,1.84-5.17,2.64c-0.04,0.02-0.09,0.05-0.14,0.08
	c-0.21,0.08-0.44,0.13-0.67,0.13c-0.3,0-0.61-0.07-0.88-0.2c-0.54-0.41-0.81-0.95-0.81-1.62c0-6.63,0-23,0-29.76
	c0-0.54,0.27-1.22,0.81-1.49c0.27-0.2,0.58-0.3,0.88-0.3s0.61,0.1,0.88,0.3c2.33,1.22,5.73,3.04,8.15,4.34c0.8,0.43,1.5,0.8,2,1.07
	c0.12,0.06,0.24,0.15,0.35,0.25c0.22,0.32,0.36,0.7,0.36,1.1C291.79,348.97,291.79,361.09,291.79,364.81z"/>
</svg>
